<svg width="60" height="60" viewBox="0 0 60 60" fill="none" xmlns="http://www.w3.org/2000/svg">
<g clip-path="url(#clip0)">
<path d="M38.4538 47.9088H5.57542C3.47014 47.9088 1.75733 46.1961 1.75733 44.0909V17.7879C1.75733 15.6826 3.47014 13.9699 5.57542 13.9699C6.06081 13.9699 6.45433 13.5764 6.45433 13.091C6.45433 12.6055 6.06081 12.2121 5.57542 12.2121C2.50088 12.2121 -0.000488281 14.7134 -0.000488281 17.7879V44.0909C-0.000488281 47.1654 2.50088 49.6666 5.57542 49.6666H38.4538C38.9392 49.6666 39.3328 49.2732 39.3328 48.7877C39.3328 48.3025 38.9392 47.9088 38.4538 47.9088Z" fill="#C5AC2D"/>
<path d="M54.4245 12.2121H25.3032C24.8178 12.2121 24.4243 12.6055 24.4243 13.091C24.4243 13.5764 24.8178 13.9699 25.3032 13.9699H54.4245C56.5298 13.9699 58.2426 15.6826 58.2426 17.7879V44.0909C58.2426 46.1961 56.5298 47.9088 54.4245 47.9088H53.4851C52.9997 47.9088 52.6062 48.3023 52.6062 48.7877C52.6062 49.2732 52.9997 49.6666 53.4851 49.6666H54.4245C57.499 49.6666 60.0004 47.1654 60.0004 44.0909V17.7879C60.0004 14.7134 57.499 12.2121 54.4245 12.2121V12.2121Z" fill="#C5AC2D"/>
<path d="M9.33106 13.9699C11.9543 13.9699 14.0885 16.104 14.0885 18.7274C14.0885 19.2128 14.482 19.6063 14.9674 19.6063C15.4528 19.6063 15.8463 19.2128 15.8463 18.7274C15.8463 16.1041 17.9806 13.9699 20.6038 13.9699C21.0892 13.9699 21.4827 13.5764 21.4827 13.091C21.4827 12.6055 21.0892 12.2121 20.6038 12.2121C17.9806 12.2121 15.8463 10.0779 15.8463 7.45465C15.8463 6.96926 15.4528 6.57574 14.9674 6.57574C14.482 6.57574 14.0885 6.96926 14.0885 7.45465C14.0885 10.0779 11.9544 12.2121 9.33106 12.2121C8.84566 12.2121 8.45215 12.6055 8.45215 13.091C8.45215 13.5764 8.84566 13.9699 9.33106 13.9699V13.9699ZM14.9674 10.7201C15.538 11.7012 16.3573 12.5204 17.3384 13.091C16.3573 13.6615 15.538 14.4809 14.9674 15.4618C14.3968 14.4809 13.5776 13.6615 12.5966 13.091C13.5775 12.5204 14.3968 11.7012 14.9674 10.7201V10.7201Z" fill="#C5AC2D"/>
<path d="M49.727 47.9088C48.1397 47.9088 46.8484 46.6174 46.8484 45.0302C46.8484 44.5449 46.4549 44.1513 45.9695 44.1513C45.4841 44.1513 45.0906 44.5449 45.0906 45.0302C45.0906 46.6175 43.7992 47.9088 42.2119 47.9088C41.7265 47.9088 41.333 48.3024 41.333 48.7877C41.333 49.2732 41.7265 49.6666 42.2119 49.6666C43.7992 49.6666 45.0906 50.9581 45.0906 52.5454C45.0906 53.0307 45.4841 53.4243 45.9695 53.4243C46.4549 53.4243 46.8484 53.0307 46.8484 52.5454C46.8484 50.9581 48.1399 49.6666 49.727 49.6666C50.2124 49.6666 50.6059 49.2732 50.6059 48.7877C50.6059 48.3025 50.2124 47.9088 49.727 47.9088ZM45.9694 49.832C45.679 49.431 45.3262 49.0781 44.9252 48.7877C45.3261 48.4974 45.679 48.1445 45.9694 47.7436C46.2598 48.1445 46.6127 48.4975 47.0137 48.7877C46.6127 49.0781 46.2598 49.4311 45.9694 49.832Z" fill="#C5AC2D"/>
<path d="M13.2754 22.5453C12.79 22.5453 12.3965 22.9389 12.3965 23.4243V38.4418C12.3965 38.8699 12.7049 39.2357 13.1268 39.3081C13.1879 39.3185 13.2762 39.3337 14.9065 39.3337C15.6978 39.3337 16.8527 39.3301 18.5436 39.3207C19.029 39.318 19.4203 38.9223 19.4176 38.4369C19.4149 37.9532 19.0219 37.5629 18.5388 37.5629C18.5371 37.5629 18.5354 37.5629 18.5337 37.5629C17.2009 37.5703 15.2493 37.5778 14.1544 37.5751V23.4243C14.1543 22.9389 13.7608 22.5453 13.2754 22.5453V22.5453Z" fill="#C5AC2D"/>
<path d="M37.2863 39.173C37.4402 39.2814 37.6168 39.3335 37.7918 39.3335C38.068 39.3335 38.3399 39.2037 38.5111 38.9607L43.4623 31.9324L48.4062 38.9602C48.5773 39.2034 48.8494 39.3335 49.1258 39.3335C49.3006 39.3335 49.477 39.2815 49.6308 39.1733C50.0278 38.8941 50.1232 38.3457 49.844 37.9488L44.5377 30.4059L49.0996 23.9304C49.3791 23.5336 49.284 22.9853 48.8872 22.7057C48.4904 22.4261 47.9421 22.5212 47.6625 22.918L43.4633 28.8786L39.2705 22.9185C38.9911 22.5213 38.4429 22.4261 38.0458 22.7053C37.6488 22.9846 37.5534 23.5329 37.8327 23.9298L42.3879 30.4051L37.074 37.9482C36.7945 38.3452 36.8896 38.8935 37.2863 39.173V39.173Z" fill="#C5AC2D"/>
<path d="M24.7408 38.4028C25.7048 39.0188 26.7957 39.3318 27.9833 39.3334H27.9931C29.025 39.3334 29.9903 39.1106 30.8627 38.6714C33.0322 37.5788 34.1789 35.8791 34.1789 33.7559V23.4243C34.1789 22.9389 33.7854 22.5453 33.3 22.5453C32.8146 22.5453 32.4211 22.9389 32.4211 23.4243V33.7559C32.4211 35.211 31.6527 36.3054 30.072 37.1015C29.4471 37.4162 28.7477 37.5757 27.9929 37.5756C27.9904 37.5756 27.988 37.5756 27.9855 37.5756C27.1379 37.5744 26.3646 37.3543 25.6871 36.9214C24.3187 36.0472 23.7349 35.1036 23.7349 33.7666V23.4243C23.7349 22.9389 23.3414 22.5453 22.856 22.5453C22.3706 22.5453 21.9771 22.9389 21.9771 23.4243V33.7666C21.9772 35.6982 22.8812 37.2147 24.7408 38.4028V38.4028Z" fill="#C5AC2D"/>
</g>
<defs>
<clipPath id="clip0">
<rect width="60.0001" height="60" fill="white" transform="translate(-0.000488281)"/>
</clipPath>
</defs>
</svg>
