<svg width="28" height="28" viewBox="0 0 28 28" fill="none" xmlns="http://www.w3.org/2000/svg">
<path d="M13.6364 0.473633C6.11681 0.473633 0 6.52396 0 13.9605C0 21.397 6.11681 27.4473 13.6364 27.4473C21.1559 27.4473 27.2727 21.397 27.2727 13.9605C27.2727 6.52396 21.1559 0.473633 13.6364 0.473633ZM13.6364 26.3234C6.74382 26.3234 1.13635 20.7774 1.13635 13.9605C1.13635 7.14351 6.74382 1.59752 13.6364 1.59752C20.5289 1.59752 26.1364 7.14351 26.1364 13.9605C26.1364 20.7774 20.5289 26.3234 13.6364 26.3234Z" fill="#FEFEFE"/>
<path d="M19.0574 13.4879L11.1029 8.43038C10.9287 8.3179 10.7034 8.31185 10.5236 8.40952C10.3405 8.5083 10.2273 8.69712 10.2273 8.9029V19.018C10.2273 19.2238 10.3405 19.4126 10.5236 19.5114C10.6079 19.557 10.7023 19.58 10.7955 19.58C10.902 19.58 11.0097 19.5503 11.1029 19.4905L19.0574 14.433C19.2195 14.3298 19.3182 14.1514 19.3182 13.9605C19.3182 13.7695 19.2195 13.5912 19.0574 13.4879ZM11.3636 17.9885V9.93243L17.6991 13.9605L11.3636 17.9885Z" fill="#FEFEFE"/>
</svg>
